<svg width="327" height="76" viewBox="0 0 327 76" fill="none" xmlns="http://www.w3.org/2000/svg">
<path d="M297.964 65.28H301.764C301.951 66.6933 302.511 67.9333 303.444 69C304.378 70.0666 305.604 70.8933 307.124 71.48C308.671 72.04 310.444 72.32 312.444 72.32C315.458 72.32 317.844 71.8133 319.604 70.8C321.391 69.76 322.284 68.36 322.284 66.6C322.284 65.24 321.724 64.2 320.604 63.48C319.511 62.76 317.591 62.24 314.844 61.92L309.044 61.2C305.391 60.7733 302.764 59.9066 301.164 58.6C299.564 57.2666 298.764 55.48 298.764 53.24C298.764 51.4533 299.298 49.9066 300.364 48.6C301.431 47.2666 302.924 46.2533 304.844 45.56C306.791 44.84 309.058 44.48 311.644 44.48C314.231 44.48 316.524 44.88 318.524 45.68C320.551 46.4533 322.151 47.5466 323.324 48.96C324.524 50.3466 325.178 51.9866 325.284 53.88H321.484C321.324 52.6 320.818 51.5066 319.964 50.6C319.111 49.6666 317.964 48.9466 316.524 48.44C315.111 47.9066 313.458 47.64 311.564 47.64C308.818 47.64 306.618 48.1333 304.964 49.12C303.338 50.08 302.524 51.4266 302.524 53.16C302.524 54.4933 303.058 55.52 304.124 56.24C305.218 56.9333 307.058 57.44 309.644 57.76L315.324 58.52C317.964 58.84 320.058 59.3066 321.604 59.92C323.178 60.5333 324.311 61.36 325.004 62.4C325.698 63.4133 326.044 64.7066 326.044 66.28C326.044 68.1733 325.471 69.8133 324.324 71.2C323.204 72.5866 321.618 73.6533 319.564 74.4C317.511 75.1466 315.124 75.52 312.404 75.52C309.658 75.52 307.218 75.0933 305.084 74.24C302.951 73.36 301.258 72.16 300.004 70.64C298.751 69.0933 298.071 67.3066 297.964 65.28Z" fill="black"/>
<path d="M277.546 75.52C274.213 75.52 271.266 74.8666 268.706 73.56C266.173 72.2533 264.199 70.44 262.786 68.12C261.373 65.7733 260.666 63.0666 260.666 60C260.666 56.9066 261.373 54.2 262.786 51.88C264.199 49.56 266.173 47.7466 268.706 46.44C271.266 45.1333 274.213 44.48 277.546 44.48C280.879 44.48 283.813 45.1333 286.346 46.44C288.879 47.7466 290.853 49.56 292.266 51.88C293.679 54.2 294.386 56.9066 294.386 60C294.386 63.0666 293.679 65.7733 292.266 68.12C290.853 70.44 288.879 72.2533 286.346 73.56C283.813 74.8666 280.879 75.52 277.546 75.52ZM277.546 72.12C280.186 72.12 282.479 71.6266 284.426 70.64C286.373 69.6266 287.879 68.2133 288.946 66.4C290.013 64.5866 290.546 62.4533 290.546 60C290.546 57.52 290.013 55.3733 288.946 53.56C287.879 51.7466 286.373 50.3466 284.426 49.36C282.479 48.3733 280.186 47.88 277.546 47.88C274.906 47.88 272.613 48.3733 270.666 49.36C268.719 50.3466 267.199 51.7466 266.106 53.56C265.039 55.3733 264.506 57.52 264.506 60C264.506 62.4533 265.039 64.5866 266.106 66.4C267.199 68.2133 268.719 69.6266 270.666 70.64C272.613 71.6266 274.906 72.12 277.546 72.12Z" fill="black"/>
<path d="M255.087 45V75H251.487V45.88L252.967 45.92L237.807 75H233.807L218.647 45.96L220.127 45.92V75H216.527V45H222.207L237.007 73.72H234.647L249.407 45H255.087Z" fill="black"/>
<path d="M183.081 65.28H186.881C187.068 66.6933 187.628 67.9333 188.561 69C189.495 70.0666 190.721 70.8933 192.241 71.48C193.788 72.04 195.561 72.32 197.561 72.32C200.575 72.32 202.961 71.8133 204.721 70.8C206.508 69.76 207.401 68.36 207.401 66.6C207.401 65.24 206.841 64.2 205.721 63.48C204.628 62.76 202.708 62.24 199.961 61.92L194.161 61.2C190.508 60.7733 187.881 59.9066 186.281 58.6C184.681 57.2666 183.881 55.48 183.881 53.24C183.881 51.4533 184.415 49.9066 185.481 48.6C186.548 47.2666 188.041 46.2533 189.961 45.56C191.908 44.84 194.175 44.48 196.761 44.48C199.348 44.48 201.641 44.88 203.641 45.68C205.668 46.4533 207.268 47.5466 208.441 48.96C209.641 50.3466 210.295 51.9866 210.401 53.88H206.601C206.441 52.6 205.935 51.5066 205.081 50.6C204.228 49.6666 203.081 48.9466 201.641 48.44C200.228 47.9066 198.575 47.64 196.681 47.64C193.935 47.64 191.735 48.1333 190.081 49.12C188.455 50.08 187.641 51.4266 187.641 53.16C187.641 54.4933 188.175 55.52 189.241 56.24C190.335 56.9333 192.175 57.44 194.761 57.76L200.441 58.52C203.081 58.84 205.175 59.3066 206.721 59.92C208.295 60.5333 209.428 61.36 210.121 62.4C210.815 63.4133 211.161 64.7066 211.161 66.28C211.161 68.1733 210.588 69.8133 209.441 71.2C208.321 72.5866 206.735 73.6533 204.681 74.4C202.628 75.1466 200.241 75.52 197.521 75.52C194.775 75.52 192.335 75.0933 190.201 74.24C188.068 73.36 186.375 72.16 185.121 70.64C183.868 69.0933 183.188 67.3066 183.081 65.28Z" fill="black"/>
<path d="M162.663 75.52C159.33 75.52 156.383 74.8666 153.823 73.56C151.29 72.2533 149.317 70.44 147.903 68.12C146.49 65.7733 145.783 63.0666 145.783 60C145.783 56.9066 146.49 54.2 147.903 51.88C149.317 49.56 151.29 47.7466 153.823 46.44C156.383 45.1333 159.33 44.48 162.663 44.48C165.997 44.48 168.93 45.1333 171.463 46.44C173.997 47.7466 175.97 49.56 177.383 51.88C178.797 54.2 179.503 56.9066 179.503 60C179.503 63.0666 178.797 65.7733 177.383 68.12C175.97 70.44 173.997 72.2533 171.463 73.56C168.93 74.8666 165.997 75.52 162.663 75.52ZM162.663 72.12C165.303 72.12 167.597 71.6266 169.543 70.64C171.49 69.6266 172.997 68.2133 174.063 66.4C175.13 64.5866 175.663 62.4533 175.663 60C175.663 57.52 175.13 55.3733 174.063 53.56C172.997 51.7466 171.49 50.3466 169.543 49.36C167.597 48.3733 165.303 47.88 162.663 47.88C160.023 47.88 157.73 48.3733 155.783 49.36C153.837 50.3466 152.317 51.7466 151.223 53.56C150.157 55.3733 149.623 57.52 149.623 60C149.623 62.4533 150.157 64.5866 151.223 66.4C152.317 68.2133 153.837 69.6266 155.783 70.64C157.73 71.6266 160.023 72.12 162.663 72.12Z" fill="black"/>
<path d="M142.21 63.44C141.943 65.8133 141.103 67.92 139.69 69.76C138.276 71.5733 136.423 72.9866 134.13 74C131.863 75.0133 129.263 75.52 126.33 75.52C123.023 75.52 120.116 74.8666 117.61 73.56C115.13 72.2533 113.196 70.44 111.81 68.12C110.423 65.7733 109.73 63.0666 109.73 60C109.73 56.9066 110.423 54.2 111.81 51.88C113.196 49.56 115.13 47.7466 117.61 46.44C120.116 45.1333 123.023 44.48 126.33 44.48C129.263 44.48 131.863 44.9866 134.13 46C136.423 47.0133 138.276 48.4266 139.69 50.24C141.103 52.0266 141.943 54.12 142.21 56.52H138.41C138.09 54.76 137.396 53.24 136.33 51.96C135.263 50.6533 133.876 49.6533 132.17 48.96C130.463 48.24 128.503 47.88 126.29 47.88C123.703 47.88 121.45 48.3733 119.53 49.36C117.636 50.3466 116.17 51.7466 115.13 53.56C114.09 55.3733 113.57 57.52 113.57 60C113.57 62.4533 114.09 64.5866 115.13 66.4C116.17 68.2133 117.636 69.6266 119.53 70.64C121.45 71.6266 123.703 72.12 126.29 72.12C128.503 72.12 130.463 71.7733 132.17 71.08C133.876 70.36 135.263 69.36 136.33 68.08C137.396 66.7733 138.09 65.2266 138.41 63.44H142.21Z" fill="black"/>
<path d="M93.4358 58.4V61.6H72.9958V58.4H93.4358ZM75.3558 60L73.0758 74.08L71.0758 71.72H94.5158V75H69.2358L71.7158 60L69.2358 45H94.3158V48.28H71.0758L73.0758 45.92L75.3558 60Z" fill="black"/>
<path d="M34.5345 45H38.2945V75H34.5345V45ZM59.3345 45H63.0945V75H59.3345V45ZM36.4545 58.28H61.3745V61.6H36.4545V58.28Z" fill="black"/>
<path d="M13.7105 46.8H17.4705V75H13.7105V46.8ZM0.830475 45H30.3505V48.32H0.830475V45Z" fill="black"/>
<path d="M312.938 1V31H309.338V1.88L310.818 1.92L295.658 31H291.658L276.498 1.96L277.978 1.92V31H274.378V1H280.058L294.858 29.72H292.498L307.258 1H312.938Z" fill="black"/>
<path d="M251.96 31.52C248.627 31.52 245.68 30.8666 243.12 29.56C240.587 28.2533 238.613 26.44 237.2 24.12C235.787 21.7733 235.08 19.0666 235.08 16C235.08 12.9066 235.787 10.2 237.2 7.87998C238.613 5.55998 240.587 3.74665 243.12 2.43998C245.68 1.13331 248.627 0.47998 251.96 0.47998C255.293 0.47998 258.227 1.13331 260.76 2.43998C263.293 3.74665 265.267 5.55998 266.68 7.87998C268.093 10.2 268.8 12.9066 268.8 16C268.8 19.0666 268.093 21.7733 266.68 24.12C265.267 26.44 263.293 28.2533 260.76 29.56C258.227 30.8666 255.293 31.52 251.96 31.52ZM251.96 28.12C254.6 28.12 256.893 27.6266 258.84 26.64C260.787 25.6266 262.294 24.2133 263.36 22.4C264.427 20.5866 264.96 18.4533 264.96 16C264.96 13.52 264.427 11.3733 263.36 9.55998C262.294 7.74665 260.787 6.34665 258.84 5.35998C256.893 4.37331 254.6 3.87998 251.96 3.87998C249.32 3.87998 247.027 4.37331 245.08 5.35998C243.133 6.34665 241.613 7.74665 240.52 9.55998C239.453 11.3733 238.92 13.52 238.92 16C238.92 18.4533 239.453 20.5866 240.52 22.4C241.613 24.2133 243.133 25.6266 245.08 26.64C247.027 27.6266 249.32 28.12 251.96 28.12Z" fill="black"/>
<path d="M207.994 15.16H220.874C222.847 15.16 224.421 14.6667 225.594 13.68C226.794 12.6933 227.394 11.3733 227.394 9.72C227.394 8.04 226.794 6.72 225.594 5.76C224.421 4.77333 222.847 4.28 220.874 4.28H207.474L209.154 2.28V31H205.394V1H220.994C223.021 1 224.794 1.37333 226.314 2.12C227.834 2.84 229.021 3.85333 229.874 5.16C230.754 6.46667 231.194 7.98667 231.194 9.72C231.194 11.4267 230.754 12.9333 229.874 14.24C229.021 15.5467 227.834 16.5733 226.314 17.32C224.794 18.04 223.021 18.4 220.994 18.4H207.994V15.16ZM214.634 16.96H219.274L231.794 31H227.114L214.634 16.96Z" fill="black"/>
<path d="M178.249 14.56H199.689V17.88H178.249V14.56ZM200.289 1V4.32H177.849L180.209 1.92V31H176.449V1H200.289Z" fill="black"/>
<path d="M131.949 21.28H135.749C135.935 22.6933 136.495 23.9333 137.429 25C138.362 26.0666 139.589 26.8933 141.109 27.48C142.655 28.04 144.429 28.32 146.429 28.32C149.442 28.32 151.829 27.8133 153.589 26.8C155.375 25.76 156.269 24.36 156.269 22.6C156.269 21.24 155.709 20.2 154.589 19.48C153.495 18.76 151.575 18.24 148.829 17.92L143.029 17.2C139.375 16.7733 136.749 15.9066 135.149 14.6C133.549 13.2666 132.749 11.48 132.749 9.23998C132.749 7.45331 133.282 5.90665 134.349 4.59998C135.415 3.26665 136.909 2.25331 138.829 1.55998C140.775 0.83998 143.042 0.47998 145.629 0.47998C148.215 0.47998 150.509 0.87998 152.509 1.67998C154.535 2.45331 156.135 3.54665 157.309 4.95998C158.509 6.34665 159.162 7.98665 159.269 9.87998H155.469C155.309 8.59998 154.802 7.50665 153.949 6.59998C153.095 5.66665 151.949 4.94665 150.509 4.43998C149.095 3.90665 147.442 3.63998 145.549 3.63998C142.802 3.63998 140.602 4.13331 138.949 5.11998C137.322 6.07998 136.509 7.42665 136.509 9.15998C136.509 10.4933 137.042 11.52 138.109 12.24C139.202 12.9333 141.042 13.44 143.629 13.76L149.309 14.52C151.949 14.84 154.042 15.3066 155.589 15.92C157.162 16.5333 158.295 17.36 158.989 18.4C159.682 19.4133 160.029 20.7066 160.029 22.28C160.029 24.1733 159.455 25.8133 158.309 27.2C157.189 28.5866 155.602 29.6533 153.549 30.4C151.495 31.1466 149.109 31.52 146.389 31.52C143.642 31.52 141.202 31.0933 139.069 30.24C136.935 29.36 135.242 28.16 133.989 26.64C132.735 25.0933 132.055 23.3066 131.949 21.28Z" fill="black"/>
<path d="M127.147 14.4V17.6H106.707V14.4H127.147ZM109.067 16L106.787 30.08L104.787 27.72H128.227V31H102.947L105.427 16L102.947 1H128.027V4.28H104.787L106.787 1.92L109.067 16Z" fill="black"/>
<path d="M78.8414 1V29.32L77.1614 27.68H99.8414V31H75.0814V1H78.8414Z" fill="black"/>
<path d="M43.3177 23.56V20.36H64.4377V23.56H43.3177ZM56.2377 1L70.9977 31H66.9177L53.0377 2.28H55.0377L41.1177 31H37.0377L51.7977 1H56.2377Z" fill="black"/>
<path d="M24.8823 2.8H28.6424V31H24.8823V2.8ZM12.0023 1H41.5224V4.32H12.0023V1Z" fill="black"/>
<circle cx="278" cy="60" r="15" fill="black"/>
</svg>
